<?xml version="1.0" standalone="no"?>
<!DOCTYPE svg PUBLIC "-//W3C//DTD SVG 20010904//EN"
 "http://www.w3.org/TR/2001/REC-SVG-20010904/DTD/svg10.dtd">
<svg version="1.0" xmlns="http://www.w3.org/2000/svg"
 viewBox="0 0 1024 992"
 preserveAspectRatio="xMidYMid meet">
<metadata>
Created by potrace 1.16, written by Peter Selinger 2001-2019
</metadata>
<g transform="translate(0.000000,992.000000) scale(0.100000,-0.100000)"
fill="#ffffff" stroke="none">
<path d="M2755 9598 c-28 -16 -129 -125 -435 -468 -101 -113 -195 -217 -209
-231 -14 -14 -48 -52 -76 -84 -27 -32 -62 -70 -76 -84 -15 -14 -68 -73 -119
-131 -91 -103 -144 -161 -186 -204 -11 -11 -123 -136 -249 -276 -125 -140
-239 -267 -254 -282 -14 -14 -46 -50 -71 -78 -25 -28 -59 -66 -76 -83 -17 -18
-127 -140 -245 -272 -118 -131 -227 -254 -244 -271 -16 -18 -46 -50 -66 -71
-20 -21 -78 -85 -129 -143 -52 -58 -108 -121 -127 -140 -18 -19 -59 -63 -92
-97 -36 -40 -66 -63 -80 -63 -21 0 -21 -2 -21 -225 l0 -225 1415 0 c1416 0
1416 0 1439 -23 22 -22 22 -22 35 -2707 13 -2685 13 -2685 37 -2710 24 -25 24
-25 362 -28 337 -3 338 -3 367 20 28 22 28 22 21 933 -5 620 -4 919 3 938 17
45 49 35 110 -36 67 -77 221 -211 271 -237 14 -7 36 -22 50 -34 29 -24 204
-112 300 -152 66 -27 263 -83 380 -108 223 -49 860 -43 1045 9 28 8 113 28
190 44 169 36 275 77 293 113 15 32 -3 138 -42 241 -15 38 -29 101 -33 141 -6
76 -7 74 45 114 21 16 22 21 13 68 -12 62 -16 303 -6 405 6 64 5 78 -10 92 -9
9 -22 17 -30 17 -8 0 -16 17 -20 40 -4 25 -17 51 -33 65 -26 24 -26 24 -2 96
18 56 21 75 12 88 -40 54 -46 79 -33 136 13 56 35 81 60 66 22 -14 49 -119 41
-163 -4 -22 -3 -55 3 -74 8 -25 7 -48 -1 -82 -10 -38 -9 -54 3 -87 8 -22 14
-50 15 -62 0 -23 0 -23 199 -23 197 0 200 0 228 -24 28 -24 28 -24 31 -1635
l2 -1611 460 0 460 0 0 1606 c0 1622 0 1634 34 1656 6 4 262 8 569 8 494 0
563 2 593 16 19 9 35 17 35 18 1 0 3 97 5 215 3 214 3 214 -28 242 -30 29 -30
29 -594 29 -548 0 -565 1 -584 20 -11 11 -23 32 -26 47 -12 48 5 492 22 568 8
39 28 140 43 225 16 85 36 173 45 194 9 22 26 76 37 120 11 45 32 101 46 126
14 25 33 69 44 97 10 29 29 68 42 85 14 18 33 49 42 68 21 40 106 147 162 203
61 61 158 126 231 153 139 54 153 55 372 51 184 -4 215 -7 304 -31 59 -16 116
-26 144 -24 52 3 51 3 85 133 8 33 22 85 31 115 8 30 18 72 21 92 3 21 17 50
30 65 23 28 23 28 439 31 l416 3 0 234 0 235 -162 0 c-90 0 -426 4 -748 10
-322 5 -1186 14 -1920 20 -734 5 -1553 12 -1820 15 -267 2 -791 7 -1165 10
-428 4 -690 10 -707 17 -61 23 -58 -61 -58 1485 0 1410 0 1410 -21 1429 -20
18 -44 19 -443 21 -304 2 -427 0 -441 -9z m115 -673 c17 -20 15 -2151 -1
-2203 -6 -17 -20 -38 -32 -45 -29 -16 -1876 -23 -1907 -7 -22 12 -26 40 -9 73
6 12 50 63 98 112 47 50 149 158 225 240 232 251 359 387 401 430 22 23 90 95
150 161 61 65 144 155 186 199 191 202 385 415 423 463 23 30 56 73 73 95 18
23 56 75 85 116 29 40 70 97 90 125 54 75 103 144 143 204 36 54 54 63 75 37z
m3682 -2771 c817 -6 991 -9 1005 -21 17 -12 14 -17 -37 -64 -30 -28 -73 -59
-95 -69 -100 -44 -265 -226 -309 -339 -10 -25 -26 -57 -37 -73 -11 -15 -27
-51 -36 -80 -8 -29 -25 -73 -38 -98 -12 -25 -32 -84 -44 -133 -12 -48 -30
-110 -41 -137 -11 -27 -28 -102 -40 -167 -11 -65 -29 -149 -39 -186 -11 -38
-27 -139 -35 -225 -38 -391 -46 -494 -46 -596 0 -108 0 -108 -34 -142 -34 -34
-34 -34 -228 -34 -230 0 -233 1 -224 76 13 102 24 329 17 337 -4 4 -46 7 -92
5 -84 -3 -84 -3 -79 -113 3 -60 5 -141 4 -180 -2 -157 -6 -801 -5 -817 1 -10
21 -40 46 -68 44 -49 56 -82 35 -95 -5 -3 -10 -1 -10 5 0 5 -16 18 -35 27 -21
10 -38 28 -44 45 -20 56 -68 41 -91 -28 -13 -38 -72 -86 -194 -156 -91 -52
-124 -59 -270 -59 -110 0 -143 8 -189 47 -16 13 -44 31 -63 39 -19 8 -44 31
-58 54 -14 22 -36 46 -48 52 -33 17 -38 28 -38 86 0 35 -14 94 -41 174 -35
106 -40 129 -34 173 4 28 9 201 10 385 3 302 5 337 22 368 18 34 18 35 -1 48
-13 10 -44 14 -105 12 -86 -2 -86 -2 -82 -37 2 -19 5 -235 5 -480 2 -462 7
-569 33 -608 8 -13 19 -54 25 -90 5 -37 17 -78 26 -92 44 -70 109 -132 185
-177 82 -48 82 -48 265 -51 162 -3 191 -1 251 17 38 11 74 27 80 35 7 8 25 18
41 21 34 7 123 96 148 146 21 43 48 47 114 19 28 -12 60 -19 73 -16 21 5 23 2
29 -56 13 -130 12 -133 -55 -196 -78 -72 -78 -72 -174 -93 -44 -9 -116 -27
-160 -38 -185 -50 -644 -50 -785 0 -30 11 -89 28 -131 39 -118 30 -305 132
-409 223 -63 55 -160 151 -160 159 0 3 -16 26 -36 50 -20 23 -45 62 -55 85
-10 24 -27 55 -39 70 -18 26 -59 137 -95 258 -26 88 -39 298 -27 457 9 127 15
158 56 282 25 76 56 155 68 175 13 20 33 56 46 81 12 25 39 68 60 96 42 58
216 234 231 234 6 0 26 14 45 30 18 17 56 40 82 51 27 12 62 31 77 41 15 11
65 31 110 45 45 14 94 31 108 39 57 29 228 47 449 48 238 1 383 -14 500 -49
302 -93 298 -93 331 17 11 40 29 89 39 108 10 19 27 70 39 112 20 72 21 80 6
108 -23 44 -50 58 -192 95 -70 19 -144 39 -163 45 -206 63 -963 57 -1159 -10
-31 -11 -86 -26 -123 -34 -37 -9 -109 -32 -160 -51 -51 -20 -106 -41 -123 -47
-16 -6 -41 -19 -55 -28 -14 -10 -47 -27 -74 -39 -28 -12 -64 -32 -80 -45 -17
-13 -44 -30 -61 -39 -16 -8 -43 -27 -60 -41 -16 -14 -33 -26 -38 -26 -15 0
-191 -166 -250 -236 -34 -41 -69 -74 -79 -74 -39 0 -40 21 -45 710 -4 666 -4
666 18 694 23 29 23 29 953 22 512 -3 1375 -9 1918 -12z m-342 -2101 c0 -16
-5 -35 -10 -43 -7 -11 -10 -4 -10 28 0 23 5 42 10 42 6 0 10 -12 10 -27z m15
-833 c13 -61 -21 -127 -46 -89 -11 17 -3 87 13 106 17 20 26 16 33 -17z
m-1215 -47 c0 -12 -5 -25 -10 -28 -15 -9 -23 21 -15 52 5 21 8 24 16 12 5 -7
9 -24 9 -36z m194 -329 c-1 -13 -35 -17 -46 -6 -6 6 -8 18 -4 27 6 16 9 16 29
2 12 -8 22 -18 21 -23z"/>
</g>
</svg>
